<?xml version="1.0" encoding="UTF-8" standalone="no"?>
<svg
   xmlns:x="adobe:ns:meta/"
   xmlns:dc="http://purl.org/dc/elements/1.1/"
   xmlns:cc="http://creativecommons.org/ns#"
   xmlns:rdf="http://www.w3.org/1999/02/22-rdf-syntax-ns#"
   xmlns:svg="http://www.w3.org/2000/svg"
   xmlns="http://www.w3.org/2000/svg"
   xmlns:sodipodi="http://sodipodi.sourceforge.net/DTD/sodipodi-0.dtd"
   xmlns:inkscape="http://www.inkscape.org/namespaces/inkscape"
   width="100"
   height="100"
   viewBox="0 0 1194 1063"
   version="1.1"
   id="svg6496"
   sodipodi:docname="getting_started.svg"
   inkscape:version="0.92.5 (2060ec1f9f, 2020-04-08)">
  <defs
     id="defs6500" />
  <sodipodi:namedview
     pagecolor="#ffffff"
     bordercolor="#666666"
     borderopacity="1"
     objecttolerance="10"
     gridtolerance="10"
     guidetolerance="10"
     inkscape:pageopacity="0"
     inkscape:pageshadow="2"
     inkscape:window-width="1280"
     inkscape:window-height="1016"
     id="namedview6498"
     showgrid="false"
     inkscape:zoom="2.36"
     inkscape:cx="-26.271186"
     inkscape:cy="50"
     inkscape:window-x="0"
     inkscape:window-y="27"
     inkscape:window-maximized="0"
     inkscape:current-layer="svg6496" />
  <metadata
     id="metadata6492">
<?xpacket begin="" id="W5M0MpCehiHzreSzNTczkc9d"?>    <x:xmpmeta
       x:xmptk="Adobe XMP Core 5.6-c138 79.159824, 2016/09/14-01:09:01        ">
      <metadata>
        <rdf:RDF>
          <rdf:Description
             rdf:about="" />
          <cc:Work
             rdf:about="">
            <dc:format>image/svg+xml</dc:format>
            <dc:type
               rdf:resource="http://purl.org/dc/dcmitype/StillImage" />
          </cc:Work>
        </rdf:RDF>
      </metadata>
    </x:xmpmeta>
<?xpacket end="w"?>  </metadata>
  <path
     style="fill:#3480a8;fill-opacity:0.99999994;stroke:#000000;stroke-width:1.91218472;stroke-miterlimit:4;stroke-dasharray:none;stroke-opacity:1"
     d="m 513.07261,169.02923 c -54.5537,4.58424 -117.1404,-10.31725 -165.6335,20.38551 -16.93,29.59322 -10.0573,90.51125 33.6662,90.57372 84.4382,6.45585 171.3529,1.57571 254.5274,9.82219 -38.0579,55.10532 -92.8665,98.68755 -138.3646,148.31512 -43.3287,43.63224 -86.6937,87.22851 -130.0364,130.84681 -107.3268,1.73762 -215.3636,-3.79565 -322.264998,4.3281 -44.49970014,18.65093 -47.3912001,87.07816 -20.0397,121.07788 37.6746,29.92295 90.907898,11.7997 135.138598,17.69877 88.8798,-0.83831 178.3508,3.18686 266.87,-3.49908 51.3315,-30.80687 89.3818,-79.64619 134.5167,-118.54821 37.4514,28.44196 69.579,62.96704 102.5501,96.29508 -77.6849,81.01645 -161.9509,156.12193 -235.3276,241.03916 -26.4331,46.99781 22.0674,117.08662 77.036,103.76562 48.3086,-10.2186 74.2762,-59.77861 111.1568,-88.56924 73.3299,-75.66242 154.78272,-144.91826 219.1419,-228.41914 7.6035,-28.17657 15.97738,-64.27198 -13.72048,-81.99679 -23.04415,-29.9123 -61.48152,-51.50889 -74.12602,-87.61895 22.5627,-37.69803 60.54563,-65.95789 91.90776,-96.99669 24.1353,-39.54983 45.47152,4.15106 67.68786,21.81655 22.87067,35.30161 67.60357,15.94955 102.73757,20.59406 53.1698,-3.68868 109.649,7.15051 160.7626,-9.45584 24.0615,-24.35829 19.0567,-73.4699 -5.0693,-95.84056 -59.2772,-4.8033 -118.906,-1.25894 -178.3213,-1.53164 -68.74952,-69.0544 -137.5016,-138.10625 -206.25633,-207.15551 -89.04236,-9.55222 -179.12446,-5.75398 -268.53926,-6.92692 z"
     id="path2131"
     inkscape:connector-curvature="0" />
  <path
     style="fill:#3480a8;fill-opacity:0.99999994;stroke:#000000;stroke-width:1.91218472;stroke-miterlimit:4;stroke-dasharray:none;stroke-opacity:1"
     d="M 974.28114,-17.385057 C 882.66958,-18.36779 822.17925,89.040563 855.03135,170.57073 c 20.03292,62.54644 88.9724,100.68162 152.50105,85.83062 76.7171,-4.11257 127.7985,-88.61489 114.6944,-160.495144 -0.9238,-16.70148 -9.3202,-32.147315 -14.2293,-46.877777 -10.3065,-7.872376 -12.1905,-27.321289 -27.7571,-33.419196 -30.3657,-24.5800607 -66.6903,-37.614918 -105.95926,-32.99429 z"
     id="path2133"
     inkscape:connector-curvature="0" />
</svg>
