<?xml version="1.0" encoding="UTF-8" standalone="no"?>
<!-- Created with Inkscape (http://www.inkscape.org/) -->

<svg
   xmlns:dc="http://purl.org/dc/elements/1.1/"
   xmlns:cc="http://creativecommons.org/ns#"
   xmlns:rdf="http://www.w3.org/1999/02/22-rdf-syntax-ns#"
   xmlns:svg="http://www.w3.org/2000/svg"
   xmlns="http://www.w3.org/2000/svg"
   xmlns:sodipodi="http://sodipodi.sourceforge.net/DTD/sodipodi-0.dtd"
   xmlns:inkscape="http://www.inkscape.org/namespaces/inkscape"
   width="123.72241mm"
   height="89.96759mm"
   viewBox="0 0 123.72242 89.96759"
   version="1.1"
   id="svg1040"
   inkscape:version="0.92.5 (2060ec1f9f, 2020-04-08)"
   sodipodi:docname="user_guide.svg">
  <defs
     id="defs1034" />
  <sodipodi:namedview
     id="base"
     pagecolor="#ffffff"
     bordercolor="#666666"
     borderopacity="1.0"
     inkscape:pageopacity="0.0"
     inkscape:pageshadow="2"
     inkscape:zoom="1.4"
     inkscape:cx="113.89636"
     inkscape:cy="155.11003"
     inkscape:document-units="mm"
     inkscape:current-layer="layer1"
     showgrid="false"
     fit-margin-top="0"
     fit-margin-left="0"
     fit-margin-right="0"
     fit-margin-bottom="0"
     inkscape:window-width="1280"
     inkscape:window-height="1016"
     inkscape:window-x="0"
     inkscape:window-y="27"
     inkscape:window-maximized="0" />
  <metadata
     id="metadata1037">
    <rdf:RDF>
      <cc:Work
         rdf:about="">
        <dc:format>image/svg+xml</dc:format>
        <dc:type
           rdf:resource="http://purl.org/dc/dcmitype/StillImage" />
        <dc:title />
      </cc:Work>
    </rdf:RDF>
  </metadata>
  <g
     inkscape:label="Layer 1"
     inkscape:groupmode="layer"
     id="layer1"
     transform="translate(141.8903,-20.32143)">
    <path
       style="fill:#3480a8;fill-opacity:0.99999994;stroke:#000000;stroke-width:0.07142857;stroke-miterlimit:4;stroke-dasharray:none;stroke-opacity:1"
       d="m -114.73341,20.756033 c -2.19872,-0.01678 -4.41348,0.111285 -6.57841,0.368379 -0.66875,-0.186866 -1.16399,0.414146 -1.85813,0.141002 -0.36198,0.423483 -1.06269,0.176301 -1.5717,0.433344 -0.4783,-0.249459 -0.53431,0.437132 -1.0542,0.151338 -0.48536,0.329765 -1.21306,0.295049 -1.66768,0.604984 -0.41778,-0.169783 -0.47591,0.375873 -0.95084,0.148385 -0.70387,0.771035 -1.78853,1.312951 -1.7271,2.518857 -0.41497,1.987869 0.014,4.149486 -0.4363,6.068289 -6.6e-4,0.789718 -1.06723,1.11697 -1.76586,1.237651 -0.69027,0.115626 -1.30988,0.471682 -1.93897,0.668471 -0.60643,0.441425 -1.45353,0.391577 -2.04343,0.879607 -0.49221,-0.03913 -0.85955,0.487788 -1.35319,0.36395 -0.9143,0.935735 -2.61609,1.011664 -3.32242,2.152323 -0.74035,4.09425 -0.31453,8.304034 -0.4565,12.449574 -0.0157,18.964685 -0.11344,37.9317 0.0924,56.894953 0.0397,1.28206 0.0862,2.98927 1.29683,3.70528 0.6647,0.26072 1.49093,0.98883 2.11652,0.31892 0.36957,0.0939 0.58755,-0.0326 0.81944,-0.20265 0.41707,0.18138 0.45445,-0.37554 0.91836,-0.16684 0.32168,-0.41422 1.00113,-0.28899 1.34949,-0.59169 0.41479,0.20166 0.45088,-0.39551 0.91172,-0.13695 0.47141,-0.65436 1.60259,-0.45493 2.1276,-0.88809 0.19563,-0.22274 0.63786,0.0784 0.84564,-0.29013 0.71324,-0.39892 1.67199,-0.59472 2.36383,-0.76924 0.0488,-0.35954 0.59098,0.0384 0.65371,-0.35989 0.4613,0.24369 0.47924,-0.37974 0.92538,-0.14617 0.14214,-0.29479 0.44233,-0.15124 0.68618,-0.27056 0.0708,-0.33443 0.59457,0.0605 0.6526,-0.3407 0.54063,0.13267 0.90906,-0.40496 1.49382,-0.38905 0.47679,-0.35278 1.19827,-0.23497 1.62375,-0.56696 0.51959,0.16265 0.90403,-0.50725 1.50895,-0.43372 0.71788,-0.0914 1.31607,-0.47055 2.04934,-0.55219 0.19439,-0.37005 0.75197,0.0956 0.97853,-0.29641 0.61839,-0.34351 1.53588,-0.25689 2.08957,-0.42559 0.10972,-0.40198 0.74433,0.037 0.90582,-0.37797 0.99999,-0.0161 1.98494,-0.51683 2.97508,-0.52932 0.42787,-0.0372 0.80514,-0.33454 1.2993,-0.16056 0.34202,-0.36496 0.9119,-0.0441 1.24724,-0.28275 0.26771,-0.42973 1.05129,0.14984 1.40487,-0.31301 1.95947,-0.0399 3.96135,-0.31063 5.95755,-0.25838 2.670337,0.0549 5.393777,-0.23799 8.032357,0.18677 0.54021,0.29449 1.27642,-0.14472 1.77657,0.28791 0.41769,-0.1278 0.69905,0.30917 1.12876,0.17164 0.0768,0.39092 0.64843,-0.01 0.70353,0.42928 0.92698,-0.0937 1.73537,0.63721 2.48933,0.95196 0.7858,0.21868 1.54419,0.86747 2.09548,1.29929 0.37421,-0.11038 0.43693,0.52106 0.86632,0.47136 0.79143,0.4643 1.58951,1.19274 2.1442,1.80425 0.40584,-0.0691 0.74814,0.40321 1.16567,0.35288 0.13121,0.39139 0.78472,-0.0288 1.05457,0.3669 1.45204,0.27471 2.82389,-0.61366 4.17214,-1.00658 0.18748,-0.20972 0.37029,-0.4028 0.54961,-0.3108 0.81709,-0.97628 1.99128,-1.93195 3.12126,-2.31917 0.77023,-0.74389 1.96127,-1.22994 3.01606,-1.46391 0.35859,-0.13098 0.80697,-0.39226 1.27124,-0.46066 0.52545,-0.36427 1.29619,-0.181 1.78542,-0.5474 0.85121,0.13937 1.59886,-0.42907 2.49412,-0.21422 4.2652,0.0238 8.57336,-0.11723 12.80838,0.30982 0.53693,0.3708 1.31693,-0.0829 1.86478,0.35583 0.53139,-0.0957 1.16621,0.1363 1.70163,0.18899 0.50856,0.35689 1.33489,0.19796 1.88766,0.57065 0.64966,-0.0541 1.39515,0.2891 2.08072,0.37429 0.35759,0.22064 0.9074,-0.0121 1.06896,0.40344 0.61449,-0.0964 1.326151,0.2203 1.916461,0.40972 0.262953,0.24474 0.809339,-0.10339 0.908767,0.3514 0.585311,-0.106 1.231823,0.26646 1.779513,0.35362 0.394639,0.32022 1.10667,0.21851 1.513012,0.55256 0.401793,-0.12745 0.486248,0.34264 0.935712,0.17755 0.336135,0.3589 1.031785,0.23515 1.429962,0.58321 0.79711,0.0152 1.559472,0.52735 2.211014,0.74857 0.375071,-0.16982 0.390708,0.40835 0.823868,0.15318 0.08635,0.40688 0.625924,-0.009 0.699108,0.39532 0.301988,-0.0472 0.486794,-0.0101 0.643374,0.21446 0.439341,-0.15373 0.532898,0.3148 0.986282,0.19785 0.146262,0.45277 0.998884,0.15482 1.375701,0.48428 0.924473,0.20314 1.815642,0.76261 2.666503,1.00621 0.366429,-0.15402 0.379452,0.41311 0.81058,0.15872 0.08635,0.40688 0.625925,-0.009 0.699108,0.39533 0.337757,-0.0939 0.497369,0.0657 0.666258,0.23587 0.779206,-0.0391 1.600936,0.66475 2.404063,0.10888 0.628449,-0.38321 1.54832,-0.3776 1.553982,-1.31811 0.649325,-2.1024 0.270008,-4.3916 0.416499,-6.56913 0.03276,-20.831305 0.138219,-41.665139 -0.167857,-62.494774 -0.11862,-1.027722 0.09523,-2.199157 -0.354578,-3.116266 -0.769057,-1.177879 -2.326587,-1.18019 -3.285882,-2.148263 -0.797039,0.169465 -1.275315,-0.661648 -2.070748,-0.626392 -0.475734,-0.150854 -0.556085,-0.55871 -1.087051,-0.43519 -0.66494,-0.02431 -1.21203,-0.591331 -1.751833,-0.710551 -0.395936,0.136646 -0.59028,-0.402106 -1.069702,-0.307474 -0.419971,-0.396193 -1.332177,-0.165898 -1.183884,-1.03312 -0.07306,-1.944716 -0.107497,-3.925317 -0.288525,-5.84243 0.02252,-0.3802 -0.282144,-0.645314 -0.248047,-1.048293 -0.370726,-0.552712 -0.991968,-1.299713 -1.518917,-1.437343 -0.301112,-0.264904 -0.817163,-0.287097 -1.130237,-0.538911 -0.404646,0.148808 -0.462804,-0.358177 -0.914305,-0.179022 -0.150683,-0.41607 -0.820004,-0.0025 -1.116949,-0.397171 -0.571198,0.0925 -1.238771,-0.116271 -1.806829,-0.229591 -0.519567,-0.360862 -1.283509,0.107852 -1.865519,-0.265395 -4.870144,-0.403911 -9.806804,-0.626355 -14.673524,-0.104829 -0.56038,0.162468 -1.11849,-0.0053 -1.62633,0.277945 -0.42552,-0.09971 -0.79373,-0.0969 -1.05567,0.206337 -1.47641,0.02608 -2.83632,0.641206 -4.25667,0.909874 -0.32289,-0.137195 -0.36068,0.399839 -0.7984,0.180498 -0.0732,0.404345 -0.61275,-0.01156 -0.69911,0.395325 -0.69102,-0.178677 -1.20019,0.613698 -1.91867,0.694679 -0.7792,0.23467 -1.47818,0.369158 -2.10784,0.912001 -1.1058,0.748057 -2.44565,0.939609 -3.416,1.820575 -0.66927,-0.08992 -0.82582,0.598636 -1.39039,0.869408 -3.26107,1.872171 -5.68043,4.879665 -8.56212,7.274059 -0.76965,0.690759 -1.35046,1.89614 -2.01944,0.418579 -1.98946,-2.11581 -3.91657,-4.316509 -6.2857,-6.011814 -0.48566,-0.437366 -0.74708,-0.8906 -1.40671,-1.027992 -0.61959,-0.291152 -1.22118,-0.876387 -1.68133,-1.236174 -0.57136,0.05131 -0.86202,-0.688343 -1.451,-0.693203 -0.60406,-0.07073 -0.86575,-0.926702 -1.39489,-0.792125 -0.0493,-0.354664 -0.43764,-0.0696 -0.526,-0.41009 -0.32248,0.189601 -0.39248,-0.398499 -0.82165,-0.236973 -0.49704,-0.03959 -1.00705,-0.509918 -1.25685,-0.721625 -1.55423,-0.347701 -3.1039,-0.977037 -4.609527,-1.538112 -0.76311,-0.274994 -1.68334,-0.296447 -2.41883,-0.676223 -0.53254,0.266727 -0.65739,-0.379777 -1.18265,-0.149123 -0.45568,-0.410968 -1.11306,-0.02939 -1.57798,-0.404184 -1.63103,0.01098 -3.28159,-0.388284 -4.94271,-0.310605 -1.44851,-0.03597 -2.89761,-0.04294 -4.3465,-0.03452 z m 69.365277,3.768319 c 2.12325,0.105338 4.302296,0.04748 6.386836,0.379083 0.47094,0.316438 1.143956,-0.07287 1.608244,0.313381 0.600781,-0.176637 1.044858,0.304213 1.616366,0.181237 0.805471,0.390926 2.1009,0.149731 2.613461,0.73454 -0.07662,20.77254 -0.307446,41.545398 -0.182824,62.318094 -0.93916,0.11026 -1.699797,-0.48096 -2.652477,-0.23107 -0.742873,-0.44774 -1.670103,-0.008 -2.480098,-0.38795 -4.921888,-0.40549 -9.940648,-0.89113 -14.839258,-0.0993 -0.42656,0.31378 -1.1048,-0.23281 -1.35651,0.29456 -0.61683,0.0433 -1.2713,0.15511 -1.83635,0.2056 -0.29645,0.26564 -0.73495,0.0715 -1.04904,0.36616 -0.63929,-0.12363 -1.114,0.42264 -1.79797,0.37023 -0.6729,0.58329 -1.75027,0.21904 -2.35644,0.85302 -0.94035,0.17841 -1.7461,0.65694 -2.63255,0.94642 -0.36924,0.0626 -0.45529,0.32223 -0.80098,0.27241 -0.93965,0.71182 -2.27739,1.38387 -3.31468,1.63851 -0.4612,0.62461 -1.39331,0.97514 -1.96223,1.22547 -0.33525,0.64032 -1.27831,0.77998 -1.70643,1.15866 -1.72886,1.52454 -3.5174,3.02941 -5.33928,4.45045 -0.46176,-0.60766 -0.16784,-1.74927 -0.28495,-2.5336 -0.28566,-18.564008 -0.37282,-37.133847 -0.11045,-55.698199 0.0234,-0.801164 -0.0647,-1.903761 0.77116,-2.258048 0.23364,-1.105288 1.43333,-1.878058 2.12492,-2.764357 1.86427,-1.785568 3.61411,-3.828946 5.85983,-5.123681 0.3989,-0.210559 0.72512,-0.874766 1.29634,-1.023193 0.35402,-0.17469 0.61366,-0.05364 0.7674,-0.458075 0.28109,-0.364862 0.90077,-0.357312 1.1546,-0.481698 0.0462,-0.299117 0.41901,-0.0549 0.49609,-0.376869 0.36834,0.140587 0.55595,-0.583362 1.06417,-0.482805 0.39043,0.101042 0.30769,-0.421686 0.69541,-0.243618 0.4881,-0.64413 1.58612,-0.845684 2.2793,-0.976315 0.24108,-0.568026 1.13206,-0.43109 1.51191,-0.597601 0.0851,-0.353291 0.61681,-9.27e-4 0.8139,-0.353984 1.10725,-0.17702 2.19624,-0.840599 3.3132,-0.720886 0.0825,-0.547684 0.8752,0.03229 1.07229,-0.417841 0.8881,0.220017 1.58374,-0.389976 2.48624,-0.256582 2.25683,-0.07771 4.51129,-0.251778 6.77085,-0.222163 z m -65.554507,0.19637 c 1.54124,0.10238 3.19516,-0.192695 4.67746,0.186774 0.37958,0.320557 0.99305,-0.05968 1.3768,0.328514 0.3845,-0.04293 0.74271,-0.111601 0.98149,0.172009 0.52696,-0.153316 0.86418,0.296829 1.37311,0.217041 0.40595,0.351522 1.09641,0.151094 1.60013,0.465457 0.44936,-0.02338 0.5364,0.397497 1.004367,0.286066 0.0976,0.44044 0.85288,0.03731 1.16198,0.419686 0.34549,0.270192 0.46303,0.406796 0.91024,0.347709 0.59894,0.04567 0.69502,0.703313 1.25537,0.593541 1.05516,0.419348 2.29529,0.933074 3.05851,1.688712 1.6049,0.45412 2.93223,1.770661 4.28725,2.747171 2.35111,2.087359 4.70484,4.267397 6.65449,6.717736 0.096,0.353861 0.67284,0.577481 0.5618,0.986281 0.20319,8.73968 0.094,17.5938 0.14026,26.377127 -0.0404,10.897455 0.0927,21.801591 -0.13373,32.694821 0.094,0.80395 -0.73636,0.79308 -1.09838,0.25001 -1.16019,-1.14558 -2.3909,-2.23385 -3.58561,-3.27591 -0.59155,-0.35924 -1.21313,-0.89044 -1.74555,-1.24245 -0.22482,-0.45908 -0.90807,-0.35123 -1.20702,-0.85525 -0.856,-0.43644 -1.79776,-0.97444 -2.48231,-1.56985 -1.15788,-0.13329 -2.11055,-1.20095 -3.31504,-1.41225 -0.80676,-0.15528 -1.50825,-0.90368 -2.27856,-0.94457 -0.30378,-0.0404 -0.45006,-0.28633 -0.82535,-0.23291 -0.0606,-0.36076 -0.59726,0.0463 -0.66331,-0.3562 -0.52644,0.15762 -0.849187,-0.39293 -1.448407,-0.29492 -0.33125,-0.29202 -0.73708,-0.18865 -1.10661,-0.29862 -0.13089,-0.35419 -0.74891,0.0899 -0.8475,-0.35029 -0.54642,0.14037 -0.95659,-0.29262 -1.49086,-0.17681 -0.57311,-0.15427 -1.15231,-0.13608 -1.66952,-0.38462 -1.209,0.0541 -2.41499,-0.40874 -3.65353,-0.3717 -3.92863,-0.18426 -7.91837,-0.16625 -11.79588,0.39606 -0.63279,-0.18222 -1.08903,0.44007 -1.76216,0.24288 -0.6559,0.25914 -1.34385,-0.004 -1.94747,0.33959 -0.7024,0.21445 -1.24772,-0.26438 -1.11178,-0.99108 -0.29314,-8.565808 -0.10308,-17.145243 -0.17444,-25.716409 -0.0102,-11.967644 -0.0188,-23.935293 -0.0282,-35.902939 0.64303,0.269825 0.86748,-0.449545 1.45913,-0.205968 0.45249,-0.321252 1.03357,-0.07652 1.47794,-0.429283 0.78167,-0.06589 1.55689,-0.17474 2.32175,-0.179391 1.03108,-0.503169 2.37627,-0.119016 3.51067,-0.261335 2.18616,-0.0064 4.37232,-0.0045 6.55848,-0.0044 z m -19.65771,11.004496 c 0.41952,3.024952 0.16706,6.170157 0.26978,9.24046 0.10041,14.832924 -0.0893,29.669559 0.19641,44.500079 -0.0292,0.46383 0.0971,1.12454 0.31338,1.36979 0.44963,0.66108 1.2564,1.37098 1.98401,1.67764 1.27299,-0.11213 2.59326,-0.35161 3.81704,-0.45549 0.58777,-0.3345 1.40134,-0.19589 2.0689,-0.35325 0.79056,0.19735 1.44444,-0.47762 2.2876,-0.26507 4.00314,-0.2308 8.03695,-0.27036 12.03674,-0.0808 0.65104,0.40716 1.46042,0.0173 2.17853,0.32593 0.55824,-0.0694 0.9457,0.38295 1.5108,0.23513 0.15665,0.51857 0.96022,0.0103 1.37127,0.34697 0.69473,0.0523 0.9438,0.59694 1.60529,0.50384 0.84577,0.14377 1.666437,0.59032 2.408127,0.87186 0.63034,-0.0357 1.10698,0.62271 1.77877,0.64448 0.46936,0.0757 0.59915,0.62051 1.00991,0.51676 0.018,0.35183 0.44445,-10e-4 0.47616,0.38499 0.37069,-0.20501 0.22507,0.38835 0.61827,0.19527 0.59987,0.11111 1.16023,0.60395 1.52261,0.93276 0.45384,-0.11072 0.76043,0.54206 1.12581,0.54629 0.15402,0.34746 1.15979,0.6825 0.50753,1.03722 -0.57681,-0.47839 -1.48088,-0.37121 -2.25641,-0.37909 -4.17866,-0.73743 -8.497927,-0.33751 -12.716097,-0.0491 -0.6513,0.3176 -1.41033,0.0232 -2.02682,0.25064 -0.56819,0.24265 -1.266,0.16265 -1.87659,0.32113 -0.62574,-0.2233 -1.06223,0.3884 -1.70495,0.13362 -0.32725,0.49353 -1.14604,0.21333 -1.66915,0.44294 -0.39703,-0.12189 -0.7933,0.31543 -1.22769,0.16868 -0.15526,0.43671 -0.8118,-1e-5 -1.09295,0.38462 -0.40417,-0.135 -0.58785,0.0816 -0.87371,0.20671 -0.49167,-0.23751 -0.60313,0.41276 -1.11362,0.14395 -0.22571,0.28084 -0.56851,0.17175 -0.90619,0.25137 -0.12649,0.343973 -0.68167,-0.0222 -0.91983,0.330373 -0.51083,0.0475 -0.99914,0.2384 -1.39785,0.392 -0.39357,-0.10058 -0.68349,0.27761 -1.08004,0.19231 -0.0672,0.38556 -0.59871,-0.0136 -0.76333,0.3573 -0.50051,0.0579 -0.97778,0.2513 -1.37423,0.39348 -0.37533,-0.16956 -0.39054,0.40894 -0.82387,0.15319 -0.0863,0.40742 -0.62606,-0.009 -0.69911,0.39569 -0.30213,-0.0471 -0.48683,-0.0105 -0.64337,0.21446 -0.44622,-0.23409 -0.46397,0.39018 -0.92538,0.1458 -0.0863,0.40743 -0.62605,-0.009 -0.6991,0.39569 -0.30213,-0.0471 -0.48684,-0.0105 -0.64338,0.21446 -0.44621,-0.23409 -0.46396,0.39018 -0.92537,0.1458 -0.0863,0.40743 -0.62606,-0.009 -0.69911,0.39569 -0.30213,-0.0471 -0.48684,-0.0105 -0.64337,0.21446 -0.44622,-0.23408 -0.46397,0.39019 -0.92538,0.1458 -0.11921,0.41146 -0.60741,0.002 -0.78807,0.37613 -0.53453,0.46673 -1.51512,0.27534 -1.94266,0.71425 -0.21971,0.18597 -0.59189,-0.10986 -0.74857,0.27019 -0.35263,0.36072 -1.06639,0.17974 -1.32882,0.41489 -0.45821,0.64712 -0.67136,-0.49954 -0.56328,-0.84528 -0.18618,-22.058653 -0.31655,-44.118142 -0.40824,-66.177581 0.8332,-0.268504 1.62094,-0.613544 2.38191,-0.994771 0.62111,0.143067 0.89934,-0.571341 1.54328,-0.516765 0.61095,-0.575132 1.60679,-0.438712 2.2734,-0.981483 0.42127,-0.17477 0.79186,0.03149 0.99698,-0.382774 0.0397,-0.0069 0.0831,-0.02387 0.12403,-0.01366 z m 101.989706,0.226638 c 0.164111,0.383073 0.67613,0.02695 0.791758,0.423747 0.446765,-0.247644 0.462516,0.336522 0.863735,0.162043 0.620448,0.424628 1.421754,0.452587 2.067425,0.849339 0.721135,0.410775 1.780955,0.538373 2.560569,0.98702 0.32617,22.170452 0.567169,44.349922 0.06902,66.519385 0.02661,0.43647 -0.31955,0.57431 -0.291602,0.91172 -0.415272,0.0692 -0.532435,-0.39613 -0.98333,-0.24916 -0.128391,-0.37702 -0.772138,-0.0119 -0.989602,-0.46988 -0.338159,-0.009 -0.500827,-0.10222 -0.70317,-0.29419 -0.496459,0.15297 -0.85172,-0.43528 -1.335095,-0.36432 -0.302178,-0.50911 -1.271223,-0.22064 -1.746295,-0.64928 -0.283605,-0.31471 -0.569278,-0.25893 -0.905076,-0.32814 -0.141298,-0.41079 -0.943843,-0.12338 -1.300623,-0.42688 -1.007335,-0.20974 -1.987979,-0.79053 -2.920974,-1.04738 -0.366278,0.1549 -0.379481,-0.41298 -0.81058,-0.15835 -0.109601,-0.40233 -0.586227,-0.0143 -0.755951,-0.35694 -0.52832,-0.0528 -1.020043,-0.25971 -1.457278,-0.42854 -0.370451,0.15194 -0.380031,-0.40902 -0.813165,-0.16906 -0.249325,-0.37578 -0.818102,0.0232 -0.92021,-0.43888 -0.629608,0.10184 -1.345795,-0.21896 -1.948569,-0.41119 -0.251838,-0.252303 -0.747427,0.0949 -0.913937,-0.290873 -0.400751,0.13948 -0.591005,-0.0731 -0.875916,-0.19895 -0.491743,0.23738 -0.603423,-0.41256 -1.113993,-0.14396 -0.23571,-0.30285 -0.60853,-0.15459 -0.96561,-0.27499 -0.28702,-0.31586 -0.81344,0.0638 -1.04091,-0.31486 -0.4103,0.0833 -0.73534,0.0198 -0.9741,-0.22996 -0.56027,0.0814 -1.1606,-0.14364 -1.70274,-0.21261 -0.20174,-0.43262 -0.91314,0.0827 -1.23101,-0.3274 -0.70805,0.1447 -1.27855,-0.37442 -1.98991,-0.17497 -0.65904,-0.1939 -1.35027,-0.11188 -1.95078,-0.41636 -1.51824,0.11897 -3.02722,-0.38792 -4.57041,-0.28902 -2.9149,-0.0542 -5.87643,-0.099 -8.74845,0.33663 -0.60003,-0.11017 -1.13606,0.30319 -1.73338,0.20671 -0.23814,0.42447 -1.61043,0.25555 -0.6314,-0.17334 0.37565,-0.5262 1.08032,-0.64535 1.44936,-1.05434 0.22233,-0.32664 0.72307,-0.32101 1.01397,-0.69468 0.58139,0.0676 0.85478,-0.64493 1.48127,-0.7781 0.79144,-0.21789 1.41295,-0.78342 2.19625,-0.90286 0.28916,-0.41692 0.82231,-0.0918 1.0243,-0.48318 0.44621,0.23408 0.46397,-0.39018 0.92537,-0.1458 0.12618,-0.40038 0.61248,-0.0407 0.82572,-0.39828 0.49782,-0.0608 0.97739,-0.24505 1.36942,-0.39532 0.39335,0.0997 0.68441,-0.2762 1.08004,-0.19342 0.10337,-0.42027 0.74163,0.0363 0.8881,-0.37982 0.40093,0.13902 0.59081,-0.073 0.87592,-0.19895 0.5353,0.15294 0.90744,-0.32954 1.46096,-0.16795 0.57575,-0.4422 1.40207,0.0314 2.01686,-0.38573 4.54073,-0.16879 9.12306,-0.15752 13.646632,0.24177 0.38309,0.3069 0.921422,0.0289 1.303353,0.36026 0.560202,-0.15352 0.941406,0.33028 1.513015,0.17902 0.454903,0.39173 1.137935,0.0405 1.689078,0.32851 1.726237,0.44413 3.72667,-0.5644 3.972074,-2.42583 0.456887,-3.90633 0.161771,-7.86857 0.288075,-11.797305 0.107146,-13.538139 0.07955,-27.079188 0.178488,-40.615889 0.118065,-0.651922 0.141473,-1.239332 0.67364,-1.623009 0.03036,-0.01607 0.06465,-0.02928 0.09966,-0.02621 z"
       id="path2728"
       inkscape:connector-curvature="0" />
  </g>
</svg>
